<?xml version="1.0" encoding="UTF-8"?>
<svg xmlns="http://www.w3.org/2000/svg" font-family="Arial, Helvetica, sans-serif" font-size="17" viewBox="0 0 600 211">
  <path d="M0 0h600v211H0z" fill="#fff"/>
  <text fill="#555" transform="translate(30 16)">

      <tspan x="0" y="0">Seconds</tspan>
  </text>
  <text transform="translate(4 52)">ELD-S-array</text>
    <path d="M126 30h93v30H126z" fill="#dfd"/>
    <text transform="translate(132 52)">4.7"</text>
    <path d="M219 30h93v30H219z" fill="#dfd"/>
    <text transform="translate(225 52)">1.6"</text>
    <path d="M312 30h93v30H312z" fill="#dfd"/>
    <text transform="translate(318 52)">1.4"</text>
    <path d="M405 30h93v30H405z" fill="#dfd"/>
    <text transform="translate(411 52)">0.44"</text>
    <path d="M498 30h102v30H498z" fill="#dfd"/>
    <text transform="translate(504 52)">0.34"</text>
  <text transform="translate(4 82)">ELD-M-array</text>
    <path d="M126 60h93v30H126z" fill="#dfd"/>
    <text transform="translate(132 82)">5.2"</text>
    <path d="M219 60h93v30H219z" fill="#dfd"/>
    <text transform="translate(225 82)">1.8"</text>
    <path d="M312 60h93v30H312z" fill="#dfd"/>
    <text transform="translate(318 82)">1.5"</text>
    <path d="M405 60h93v30H405z" fill="#dfd"/>
    <text transform="translate(411 82)">0.47"</text>
    <path d="M498 60h102v30H498z" fill="#dfd"/>
    <text transform="translate(504 82)">0.37"</text>
  <text transform="translate(4 112)">ELD-XL-array</text>
    <path d="M126 90h93v30H126z" fill="#dfd"/>
    <text transform="translate(132 112)">4.7"</text>
    <path d="M219 90h93v30H219z" fill="#dfd"/>
    <text transform="translate(225 112)">1.6"</text>
    <path d="M312 90h93v30H312z" fill="#dfd"/>
    <text transform="translate(318 112)">1.3"</text>
    <path d="M405 90h93v30H405z" fill="#dfd"/>
    <text transform="translate(411 112)">0.44"</text>
    <path d="M498 90h102v30H498z" fill="#dfd"/>
    <text transform="translate(504 112)">0.34"</text>
  <text transform="translate(4 142)">ELD-XL-string</text>
    <path d="M126 120h93v30H126z" fill="#dfd"/>
    <text transform="translate(132 142)">11"</text>
    <path d="M219 120h93v30H219z" fill="#dfd"/>
    <text transform="translate(225 142)">4.0"</text>
    <path d="M312 120h93v30H312z" fill="#dfd"/>
    <text transform="translate(318 142)">3.4"</text>
    <path d="M405 120h93v30H405z" fill="#dfd"/>
    <text transform="translate(411 142)">0.77"</text>
    <path d="M498 120h102v30H498z" fill="#dfd"/>
    <text transform="translate(504 142)">0.53"</text>
  <text transform="translate(4 172)">ELD-XL-bytes</text>
    <path d="M126 150h93v30H126z" fill="#dfd"/>
    <text transform="translate(132 172)">11"</text>
    <path d="M219 150h93v30H219z" fill="#dfd"/>
    <text transform="translate(225 172)">4.0"</text>
    <path d="M312 150h93v30H312z" fill="#dfd"/>
    <text transform="translate(318 172)">3.4"</text>
    <path d="M405 150h93v30H405z" fill="#dfd"/>
    <text transform="translate(411 172)">0.77"</text>
    <path d="M498 150h102v30H498z" fill="#dfd"/>
    <text transform="translate(504 172)">0.53"</text>
  <text transform="translate(4 202)">ELD-XL-disk</text>
    <path d="M126 180h93v30H126z" fill="#fec"/>
    <text transform="translate(132 202)">65"</text>
    <path d="M219 180h93v30H219z" fill="#fec"/>
    <text transform="translate(225 202)">27"</text>
    <path d="M312 180h93v30H312z" fill="#fec"/>
    <text transform="translate(318 202)">22"</text>
    <path d="M405 180h93v30H405z" fill="#ffc"/>
    <text transform="translate(411 202)">4.4"</text>
    <path d="M498 180h102v30H498z" fill="#ffc"/>
    <text transform="translate(504 202)">2.6"</text>
  <g fill="#ddd">
    <path d="M0 0h600v1H0z"/>
    <path d="M0 30h600v1H0z"/>
    <path d="M0 60h600v1H0z"/>
    <path d="M0 90h600v1H0z"/>
    <path d="M0 120h600v1H0z"/>
    <path d="M0 150h600v1H0z"/>
    <path d="M0 180h600v1H0z"/>
    <path d="M0 210h600v1H0z"/>
    <path d="M0 210h600v1H0z"/>
  </g>
  <path d="M0 0h1v211H0zm126 0h1v211h-1zm93 0h1v211h-1zm93 0h1v211h-1zm93 0h1v211h-1zm93 0h1v211h-1zm101 0h1v211h-1z" fill="#ddd"/>
  <g font-size="16" font-weight="700">
    <text transform="translate(130 21)"><tspan>Tatoeba-50</tspan></text>
    <text transform="translate(223 21)"><tspan>ELD test</tspan></text>
    <text transform="translate(316 21)"><tspan>Sentences</tspan></text>
    <text transform="translate(409 21)"><tspan>Word pairs</tspan></text>
    <text font-size="15.4" transform="translate(502 21)"><tspan>Single words</tspan></text>
  </g>
  <path d="M0 0h1v210H0zm126 0h1v210h-1zm0" fill="none"/>
</svg>